<svg xmlns="http://www.w3.org/2000/svg" xmlns:xlink="http://www.w3.org/1999/xlink" width="75" viewBox="0 0 75 30" height="30" version="1.0"><defs><clipPath id="a"><path d="M 26.796875 21 L 29 21 L 29 25 L 26.796875 25 Z M 26.796875 21"/></clipPath><clipPath id="b"><path d="M 26.796875 20 L 29 20 L 29 25 L 26.796875 25 Z M 26.796875 20"/></clipPath><clipPath id="c"><path d="M 26.796875 20 L 31 20 L 31 22 L 26.796875 22 Z M 26.796875 20"/></clipPath><clipPath id="d"><path d="M 26.796875 19 L 32 19 L 32 22 L 26.796875 22 Z M 26.796875 19"/></clipPath><clipPath id="e"><path d="M 34 18.757812 L 39 18.757812 L 39 21 L 34 21 Z M 34 18.757812"/></clipPath><clipPath id="f"><path d="M 33 18.757812 L 40 18.757812 L 40 21 L 33 21 Z M 33 18.757812"/></clipPath><clipPath id="g"><path d="M 36 18.757812 L 40 18.757812 L 40 21 L 36 21 Z M 36 18.757812"/></clipPath><clipPath id="h"><path d="M 37 18.757812 L 42 18.757812 L 42 21 L 37 21 Z M 37 18.757812"/></clipPath><clipPath id="i"><path d="M 45 20 L 47.847656 20 L 47.847656 22 L 45 22 Z M 45 20"/></clipPath><clipPath id="j"><path d="M 32 24 L 41 24 L 41 28.917969 L 32 28.917969 Z M 32 24"/></clipPath><clipPath id="k"><path d="M 32 23 L 41 23 L 41 28.917969 L 32 28.917969 Z M 32 23"/></clipPath><clipPath id="l"><path d="M 41.488281 22.644531 L 47.804688 22.644531 L 47.804688 25.722656 L 41.488281 25.722656 Z M 41.488281 22.644531"/></clipPath><clipPath id="m"><path d="M 41.09375 22.25 L 47.804688 22.25 L 47.804688 26.117188 L 41.09375 26.117188 Z M 41.09375 22.25"/></clipPath><clipPath id="n"><path d="M 45.921875 21.457031 L 47.804688 21.457031 L 47.804688 21.953125 L 45.921875 21.953125 Z M 45.921875 21.457031"/></clipPath><clipPath id="o"><path d="M 45.476562 21.058594 L 47.804688 21.058594 L 47.804688 22.347656 L 45.476562 22.347656 Z M 45.476562 21.058594"/></clipPath><clipPath id="p"><path d="M 46.757812 21.109375 L 47.804688 21.109375 L 47.804688 21.703125 L 46.757812 21.703125 Z M 46.757812 21.109375"/></clipPath><clipPath id="q"><path d="M 46.363281 20.710938 L 47.804688 20.710938 L 47.804688 22.101562 L 46.363281 22.101562 Z M 46.363281 20.710938"/></clipPath><clipPath id="r"><path d="M 45.824219 22.148438 L 47.804688 22.148438 L 47.804688 22.84375 L 45.824219 22.84375 Z M 45.824219 22.148438"/></clipPath><clipPath id="s"><path d="M 45.429688 21.753906 L 47.804688 21.753906 L 47.804688 23.242188 L 45.429688 23.242188 Z M 45.429688 21.753906"/></clipPath><clipPath id="t"><path d="M 46.363281 21.902344 L 47.804688 21.902344 L 47.804688 22.25 L 46.363281 22.25 Z M 46.363281 21.902344"/></clipPath><clipPath id="u"><path d="M 46 21.503906 L 47.804688 21.503906 L 47.804688 22.644531 L 46 22.644531 Z M 46 21.503906"/></clipPath><clipPath id="v"><path d="M 26.796875 18.757812 L 47.847656 18.757812 L 47.847656 28.917969 L 26.796875 28.917969 Z M 26.796875 18.757812"/></clipPath><g id="w"><path d="M 0.34375 0 C 0.300781 0 0.265625 -0.0078125 0.234375 -0.03125 C 0.210938 -0.0625 0.203125 -0.0976562 0.203125 -0.140625 C 0.203125 -0.171875 0.210938 -0.207031 0.234375 -0.25 L 2.078125 -5.390625 C 2.097656 -5.453125 2.117188 -5.492188 2.140625 -5.515625 C 2.171875 -5.535156 2.21875 -5.546875 2.28125 -5.546875 L 3.578125 -5.546875 C 3.703125 -5.546875 3.789062 -5.484375 3.84375 -5.359375 L 5.65625 -0.234375 C 5.664062 -0.210938 5.671875 -0.1875 5.671875 -0.15625 C 5.671875 -0.113281 5.660156 -0.078125 5.640625 -0.046875 C 5.617188 -0.015625 5.59375 0 5.5625 0 L 4.265625 0 C 4.179688 0 4.128906 -0.0390625 4.109375 -0.125 L 3.78125 -1.09375 C 3.757812 -1.125 3.742188 -1.144531 3.734375 -1.15625 C 3.722656 -1.164062 3.703125 -1.171875 3.671875 -1.171875 L 1.96875 -1.171875 C 1.914062 -1.171875 1.878906 -1.144531 1.859375 -1.09375 L 1.515625 -0.109375 C 1.484375 -0.0351562 1.425781 0 1.34375 0 Z M 3.328125 -2.3125 C 3.378906 -2.3125 3.40625 -2.335938 3.40625 -2.390625 C 3.40625 -2.421875 3.398438 -2.441406 3.390625 -2.453125 L 2.859375 -3.953125 C 2.859375 -3.984375 2.84375 -4 2.8125 -4 C 2.789062 -4 2.773438 -3.984375 2.765625 -3.953125 L 2.21875 -2.453125 C 2.207031 -2.429688 2.203125 -2.40625 2.203125 -2.375 C 2.203125 -2.332031 2.234375 -2.3125 2.296875 -2.3125 Z M 3.328125 -2.3125"/></g><g id="x"><path d="M 0.453125 -5.390625 C 0.453125 -5.441406 0.460938 -5.476562 0.484375 -5.5 C 0.515625 -5.53125 0.546875 -5.546875 0.578125 -5.546875 L 1.84375 -5.546875 C 1.925781 -5.546875 1.96875 -5.5 1.96875 -5.40625 L 1.96875 -1.203125 C 1.96875 -1.160156 1.972656 -1.128906 1.984375 -1.109375 C 1.992188 -1.097656 2.015625 -1.09375 2.046875 -1.09375 L 4.375 -1.09375 C 4.476562 -1.09375 4.53125 -1.050781 4.53125 -0.96875 L 4.53125 -0.15625 C 4.53125 -0.101562 4.515625 -0.0625 4.484375 -0.03125 C 4.453125 -0.0078125 4.410156 0 4.359375 0 L 0.640625 0 C 0.566406 0 0.515625 -0.0078125 0.484375 -0.03125 C 0.460938 -0.0625 0.453125 -0.109375 0.453125 -0.171875 Z M 0.453125 -5.390625"/></g><g id="y"><path d="M 2.84375 0.078125 C 2.332031 0.078125 1.878906 -0.0390625 1.484375 -0.28125 C 1.097656 -0.519531 0.800781 -0.851562 0.59375 -1.28125 C 0.382812 -1.707031 0.28125 -2.195312 0.28125 -2.75 C 0.28125 -3.320312 0.390625 -3.828125 0.609375 -4.265625 C 0.828125 -4.703125 1.132812 -5.035156 1.53125 -5.265625 C 1.9375 -5.503906 2.398438 -5.625 2.921875 -5.625 C 3.335938 -5.625 3.707031 -5.546875 4.03125 -5.390625 C 4.363281 -5.242188 4.628906 -5.046875 4.828125 -4.796875 C 5.035156 -4.554688 5.171875 -4.296875 5.234375 -4.015625 L 5.25 -3.90625 C 5.25 -3.851562 5.238281 -3.816406 5.21875 -3.796875 C 5.195312 -3.785156 5.171875 -3.78125 5.140625 -3.78125 L 4 -3.609375 C 3.945312 -3.609375 3.910156 -3.613281 3.890625 -3.625 C 3.878906 -3.644531 3.867188 -3.6875 3.859375 -3.75 C 3.816406 -3.988281 3.710938 -4.1875 3.546875 -4.34375 C 3.378906 -4.507812 3.160156 -4.59375 2.890625 -4.59375 C 2.546875 -4.59375 2.285156 -4.453125 2.109375 -4.171875 C 1.941406 -3.890625 1.859375 -3.429688 1.859375 -2.796875 C 1.859375 -2.128906 1.945312 -1.65625 2.125 -1.375 C 2.3125 -1.101562 2.582031 -0.96875 2.9375 -0.96875 C 3.1875 -0.96875 3.390625 -1.03125 3.546875 -1.15625 C 3.703125 -1.28125 3.8125 -1.445312 3.875 -1.65625 L 3.890625 -1.796875 C 3.898438 -1.828125 3.90625 -1.847656 3.90625 -1.859375 C 3.90625 -1.898438 3.878906 -1.921875 3.828125 -1.921875 L 3.03125 -1.921875 C 2.976562 -1.921875 2.941406 -1.925781 2.921875 -1.9375 C 2.898438 -1.957031 2.890625 -2 2.890625 -2.0625 L 2.890625 -2.703125 C 2.890625 -2.785156 2.9375 -2.828125 3.03125 -2.828125 L 5.078125 -2.8125 C 5.160156 -2.8125 5.222656 -2.789062 5.265625 -2.75 C 5.304688 -2.707031 5.328125 -2.660156 5.328125 -2.609375 L 5.328125 -0.125 C 5.328125 -0.0820312 5.316406 -0.0507812 5.296875 -0.03125 C 5.273438 -0.0078125 5.242188 0 5.203125 0 L 4.953125 0 C 4.859375 0 4.785156 -0.046875 4.734375 -0.140625 L 4.46875 -0.609375 C 4.457031 -0.628906 4.445312 -0.640625 4.4375 -0.640625 C 4.425781 -0.640625 4.410156 -0.628906 4.390625 -0.609375 C 4.203125 -0.398438 3.992188 -0.234375 3.765625 -0.109375 C 3.535156 0.015625 3.226562 0.078125 2.84375 0.078125 Z M 2.84375 0.078125"/></g><g id="z"><path d="M 2.90625 0.078125 C 2.375 0.078125 1.910156 -0.0351562 1.515625 -0.265625 C 1.117188 -0.492188 0.8125 -0.820312 0.59375 -1.25 C 0.382812 -1.675781 0.28125 -2.179688 0.28125 -2.765625 C 0.28125 -3.335938 0.382812 -3.835938 0.59375 -4.265625 C 0.8125 -4.703125 1.117188 -5.035156 1.515625 -5.265625 C 1.921875 -5.503906 2.382812 -5.625 2.90625 -5.625 C 3.4375 -5.625 3.898438 -5.503906 4.296875 -5.265625 C 4.691406 -5.035156 4.992188 -4.703125 5.203125 -4.265625 C 5.421875 -3.835938 5.53125 -3.335938 5.53125 -2.765625 C 5.53125 -2.191406 5.421875 -1.691406 5.203125 -1.265625 C 4.992188 -0.835938 4.691406 -0.503906 4.296875 -0.265625 C 3.898438 -0.0351562 3.4375 0.078125 2.90625 0.078125 Z M 2.921875 -0.96875 C 3.285156 -0.96875 3.546875 -1.101562 3.703125 -1.375 C 3.867188 -1.65625 3.953125 -2.109375 3.953125 -2.734375 C 3.953125 -3.390625 3.867188 -3.863281 3.703125 -4.15625 C 3.535156 -4.445312 3.269531 -4.59375 2.90625 -4.59375 C 2.539062 -4.59375 2.273438 -4.445312 2.109375 -4.15625 C 1.941406 -3.863281 1.859375 -3.390625 1.859375 -2.734375 C 1.859375 -2.109375 1.941406 -1.65625 2.109375 -1.375 C 2.273438 -1.101562 2.546875 -0.96875 2.921875 -0.96875 Z M 2.921875 -0.96875"/></g><g id="A"><path d="M 0.453125 -5.390625 C 0.453125 -5.492188 0.492188 -5.546875 0.578125 -5.546875 L 4.5 -5.546875 C 4.582031 -5.546875 4.625 -5.5 4.625 -5.40625 L 4.625 -4.640625 C 4.625 -4.578125 4.609375 -4.53125 4.578125 -4.5 C 4.546875 -4.46875 4.5 -4.453125 4.4375 -4.453125 L 2.125 -4.453125 C 2.019531 -4.453125 1.96875 -4.40625 1.96875 -4.3125 L 1.96875 -3.46875 C 1.96875 -3.425781 1.976562 -3.390625 2 -3.359375 C 2.019531 -3.335938 2.050781 -3.328125 2.09375 -3.328125 L 3.546875 -3.328125 C 3.640625 -3.328125 3.6875 -3.285156 3.6875 -3.203125 L 3.6875 -2.359375 C 3.6875 -2.285156 3.644531 -2.25 3.5625 -2.25 L 2.078125 -2.25 C 2.003906 -2.25 1.96875 -2.210938 1.96875 -2.140625 L 1.96875 -1.203125 C 1.96875 -1.160156 1.972656 -1.128906 1.984375 -1.109375 C 1.992188 -1.097656 2.015625 -1.09375 2.046875 -1.09375 L 4.546875 -1.09375 C 4.597656 -1.09375 4.632812 -1.082031 4.65625 -1.0625 C 4.675781 -1.050781 4.6875 -1.019531 4.6875 -0.96875 L 4.6875 -0.15625 C 4.6875 -0.0507812 4.632812 0 4.53125 0 L 0.640625 0 C 0.566406 0 0.515625 -0.0078125 0.484375 -0.03125 C 0.460938 -0.0625 0.453125 -0.109375 0.453125 -0.171875 Z M 0.453125 -5.390625"/></g><g id="B"><path d="M 5.125 -5.546875 C 5.195312 -5.546875 5.234375 -5.507812 5.234375 -5.4375 L 5.234375 -0.125 C 5.234375 -0.0820312 5.21875 -0.0507812 5.1875 -0.03125 C 5.164062 -0.0078125 5.128906 0 5.078125 0 L 4.171875 0 C 4.128906 0 4.09375 -0.00390625 4.0625 -0.015625 C 4.039062 -0.0234375 4.015625 -0.0546875 3.984375 -0.109375 L 1.765625 -3.15625 C 1.742188 -3.1875 1.722656 -3.203125 1.703125 -3.203125 C 1.691406 -3.203125 1.6875 -3.1875 1.6875 -3.15625 L 1.6875 -0.125 C 1.6875 -0.0820312 1.671875 -0.0507812 1.640625 -0.03125 C 1.617188 -0.0078125 1.582031 0 1.53125 0 L 0.625 0 C 0.507812 0 0.453125 -0.046875 0.453125 -0.140625 L 0.453125 -5.390625 C 0.453125 -5.453125 0.460938 -5.492188 0.484375 -5.515625 C 0.515625 -5.535156 0.554688 -5.546875 0.609375 -5.546875 L 1.671875 -5.546875 C 1.734375 -5.546875 1.773438 -5.539062 1.796875 -5.53125 C 1.828125 -5.519531 1.863281 -5.488281 1.90625 -5.4375 L 3.90625 -2.625 C 3.925781 -2.582031 3.953125 -2.5625 3.984375 -2.5625 C 4.003906 -2.5625 4.015625 -2.59375 4.015625 -2.65625 L 4.015625 -5.40625 C 4.015625 -5.5 4.066406 -5.546875 4.171875 -5.546875 Z M 5.125 -5.546875"/></g><g id="C"><path d="M 0.625 0 C 0.570312 0 0.53125 -0.015625 0.5 -0.046875 C 0.46875 -0.0859375 0.453125 -0.132812 0.453125 -0.1875 L 0.453125 -5.390625 C 0.453125 -5.453125 0.460938 -5.492188 0.484375 -5.515625 C 0.515625 -5.535156 0.550781 -5.546875 0.59375 -5.546875 L 2.4375 -5.546875 C 2.488281 -5.546875 2.523438 -5.535156 2.546875 -5.515625 C 2.578125 -5.503906 2.601562 -5.472656 2.625 -5.421875 L 3.5625 -2.6875 C 3.582031 -2.644531 3.601562 -2.625 3.625 -2.625 C 3.644531 -2.625 3.660156 -2.644531 3.671875 -2.6875 L 4.546875 -5.359375 C 4.585938 -5.484375 4.648438 -5.546875 4.734375 -5.546875 L 6.625 -5.546875 C 6.71875 -5.546875 6.765625 -5.5 6.765625 -5.40625 L 6.765625 -0.1875 C 6.765625 -0.125 6.742188 -0.078125 6.703125 -0.046875 C 6.671875 -0.015625 6.617188 0 6.546875 0 L 5.421875 0 C 5.359375 0 5.3125 -0.0078125 5.28125 -0.03125 C 5.257812 -0.0625 5.25 -0.109375 5.25 -0.171875 L 5.25 -3.703125 C 5.25 -3.734375 5.238281 -3.75 5.21875 -3.75 C 5.195312 -3.75 5.179688 -3.734375 5.171875 -3.703125 L 3.984375 -0.125 C 3.953125 -0.0390625 3.894531 0 3.8125 0 L 3.109375 0 C 3.015625 0 2.953125 -0.0390625 2.921875 -0.125 L 1.75 -3.640625 C 1.726562 -3.691406 1.710938 -3.71875 1.703125 -3.71875 C 1.679688 -3.71875 1.671875 -3.691406 1.671875 -3.640625 L 1.671875 -0.15625 C 1.671875 -0.09375 1.660156 -0.0507812 1.640625 -0.03125 C 1.617188 -0.0078125 1.578125 0 1.515625 0 Z M 0.625 0"/></g><g id="D"><path d="M 0.234375 -5.390625 C 0.234375 -5.441406 0.242188 -5.476562 0.265625 -5.5 C 0.296875 -5.53125 0.335938 -5.546875 0.390625 -5.546875 L 4.796875 -5.546875 C 4.847656 -5.546875 4.882812 -5.53125 4.90625 -5.5 C 4.9375 -5.476562 4.953125 -5.441406 4.953125 -5.390625 L 4.953125 -4.609375 C 4.953125 -4.515625 4.90625 -4.46875 4.8125 -4.46875 L 3.4375 -4.46875 C 3.382812 -4.46875 3.359375 -4.445312 3.359375 -4.40625 L 3.359375 -0.15625 C 3.359375 -0.0507812 3.3125 0 3.21875 0 L 1.96875 0 C 1.882812 0 1.84375 -0.046875 1.84375 -0.140625 L 1.84375 -4.375 C 1.84375 -4.414062 1.835938 -4.441406 1.828125 -4.453125 C 1.816406 -4.460938 1.796875 -4.46875 1.765625 -4.46875 L 0.390625 -4.46875 C 0.285156 -4.46875 0.234375 -4.515625 0.234375 -4.609375 Z M 0.234375 -5.390625"/></g><g id="E"><path d="M 5.203125 -5.546875 C 5.265625 -5.546875 5.304688 -5.523438 5.328125 -5.484375 C 5.347656 -5.453125 5.351562 -5.410156 5.34375 -5.359375 L 3.578125 -0.171875 C 3.546875 -0.0546875 3.460938 0 3.328125 0 L 2.234375 0 C 2.097656 0 2.015625 -0.0546875 1.984375 -0.171875 L 0.21875 -5.359375 C 0.207031 -5.390625 0.203125 -5.410156 0.203125 -5.421875 C 0.203125 -5.460938 0.210938 -5.492188 0.234375 -5.515625 C 0.265625 -5.535156 0.304688 -5.546875 0.359375 -5.546875 L 1.625 -5.546875 C 1.707031 -5.546875 1.765625 -5.5 1.796875 -5.40625 L 2.90625 -1.890625 C 2.914062 -1.847656 2.929688 -1.828125 2.953125 -1.828125 C 2.960938 -1.828125 2.972656 -1.847656 2.984375 -1.890625 L 4.046875 -5.40625 C 4.054688 -5.457031 4.078125 -5.492188 4.109375 -5.515625 C 4.140625 -5.535156 4.175781 -5.546875 4.21875 -5.546875 Z M 5.203125 -5.546875"/></g><g id="F"><path d="M 5.140625 -0.21875 C 5.148438 -0.1875 5.15625 -0.164062 5.15625 -0.15625 C 5.15625 -0.101562 5.140625 -0.0625 5.109375 -0.03125 C 5.085938 -0.0078125 5.054688 0 5.015625 0 L 3.734375 0 C 3.640625 0 3.578125 -0.046875 3.546875 -0.140625 L 2.796875 -2.15625 C 2.785156 -2.195312 2.757812 -2.222656 2.71875 -2.234375 C 2.6875 -2.253906 2.640625 -2.265625 2.578125 -2.265625 L 2.0625 -2.265625 C 2.03125 -2.265625 2.003906 -2.253906 1.984375 -2.234375 C 1.972656 -2.222656 1.96875 -2.207031 1.96875 -2.1875 L 1.96875 -0.203125 C 1.96875 -0.128906 1.945312 -0.078125 1.90625 -0.046875 C 1.875 -0.015625 1.820312 0 1.75 0 L 0.625 0 C 0.5625 0 0.515625 -0.0078125 0.484375 -0.03125 C 0.460938 -0.0625 0.453125 -0.109375 0.453125 -0.171875 L 0.453125 -5.390625 C 0.453125 -5.492188 0.492188 -5.546875 0.578125 -5.546875 L 3.015625 -5.546875 C 3.710938 -5.546875 4.25 -5.410156 4.625 -5.140625 C 5.007812 -4.867188 5.203125 -4.488281 5.203125 -4 C 5.203125 -3.644531 5.109375 -3.332031 4.921875 -3.0625 C 4.734375 -2.800781 4.492188 -2.617188 4.203125 -2.515625 C 4.179688 -2.503906 4.171875 -2.476562 4.171875 -2.4375 C 4.171875 -2.414062 4.171875 -2.394531 4.171875 -2.375 Z M 2.90625 -3.265625 C 3.144531 -3.265625 3.328125 -3.316406 3.453125 -3.421875 C 3.578125 -3.535156 3.640625 -3.695312 3.640625 -3.90625 C 3.640625 -4.113281 3.570312 -4.273438 3.4375 -4.390625 C 3.300781 -4.503906 3.125 -4.5625 2.90625 -4.5625 L 2.125 -4.5625 C 2.0625 -4.5625 2.019531 -4.550781 2 -4.53125 C 1.976562 -4.507812 1.96875 -4.472656 1.96875 -4.421875 L 1.96875 -3.421875 C 1.96875 -3.367188 1.972656 -3.328125 1.984375 -3.296875 C 2.003906 -3.273438 2.035156 -3.265625 2.078125 -3.265625 Z M 2.90625 -3.265625"/></g><g id="G"><path d="M 3.703125 -4.15625 C 3.578125 -4.289062 3.4375 -4.394531 3.28125 -4.46875 C 3.132812 -4.550781 2.929688 -4.59375 2.671875 -4.59375 C 2.390625 -4.59375 2.175781 -4.546875 2.03125 -4.453125 C 1.882812 -4.359375 1.8125 -4.238281 1.8125 -4.09375 C 1.8125 -4 1.851562 -3.910156 1.9375 -3.828125 C 2.019531 -3.742188 2.160156 -3.675781 2.359375 -3.625 L 3.5625 -3.296875 C 4.019531 -3.179688 4.359375 -2.984375 4.578125 -2.703125 C 4.804688 -2.421875 4.921875 -2.085938 4.921875 -1.703125 C 4.921875 -1.335938 4.828125 -1.019531 4.640625 -0.75 C 4.453125 -0.488281 4.179688 -0.285156 3.828125 -0.140625 C 3.484375 0.00390625 3.078125 0.078125 2.609375 0.078125 C 2.078125 0.078125 1.59375 -0.0078125 1.15625 -0.1875 C 0.726562 -0.363281 0.425781 -0.601562 0.25 -0.90625 C 0.21875 -0.957031 0.203125 -0.992188 0.203125 -1.015625 C 0.203125 -1.054688 0.234375 -1.097656 0.296875 -1.140625 L 0.96875 -1.609375 C 1.019531 -1.640625 1.066406 -1.65625 1.109375 -1.65625 C 1.160156 -1.65625 1.203125 -1.632812 1.234375 -1.59375 C 1.410156 -1.363281 1.585938 -1.203125 1.765625 -1.109375 C 1.953125 -1.015625 2.195312 -0.96875 2.5 -0.96875 C 2.800781 -0.96875 3.039062 -1.007812 3.21875 -1.09375 C 3.394531 -1.1875 3.484375 -1.316406 3.484375 -1.484375 C 3.484375 -1.710938 3.300781 -1.878906 2.9375 -1.984375 L 1.796875 -2.28125 C 1.359375 -2.394531 1.015625 -2.597656 0.765625 -2.890625 C 0.515625 -3.179688 0.390625 -3.519531 0.390625 -3.90625 C 0.390625 -4.226562 0.476562 -4.519531 0.65625 -4.78125 C 0.84375 -5.039062 1.101562 -5.242188 1.4375 -5.390625 C 1.78125 -5.546875 2.175781 -5.625 2.625 -5.625 C 3.050781 -5.625 3.445312 -5.550781 3.8125 -5.40625 C 4.1875 -5.257812 4.460938 -5.066406 4.640625 -4.828125 C 4.671875 -4.773438 4.6875 -4.734375 4.6875 -4.703125 C 4.6875 -4.679688 4.671875 -4.65625 4.640625 -4.625 L 3.90625 -4.09375 C 3.882812 -4.070312 3.863281 -4.0625 3.84375 -4.0625 C 3.8125 -4.0625 3.765625 -4.09375 3.703125 -4.15625 Z M 3.703125 -4.15625"/></g></defs><path transform="matrix(.00493 0 0 -.00496 26.855 32.366)" fill="#A8DB5B" d="M 798.457351 1389.256712 L 934.832399 1546.006229 L 539.979061 1523.951021 Z M 798.457351 1389.256712" stroke="#6E8F3C" stroke-width="5.757" stroke-miterlimit="10"/><path fill="#A8DB5B" d="M 35.980469 20.632812 L 36.882812 20.746094 L 37.113281 20.21875 L 36.359375 20.152344 L 35.882812 20.304688 C 36.179688 20.390625 36.210938 20.527344 35.980469 20.632812"/><path transform="matrix(.00493 0 0 -.00496 26.855 32.366)" fill="none" d="M 1852.192463 2365.987373 L 2035.347324 2343.144479 L 2082.127137 2449.482091 L 1929.101647 2462.872753 L 1832.370508 2432.152999 C 1892.62925 2414.823906 1898.972276 2387.254896 1852.192463 2365.987373 Z M 1852.192463 2365.987373" stroke="#6E8F3C" stroke-width="5.757" stroke-miterlimit="10"/><path fill="#A8DB5B" d="M 35.628906 20.632812 C 35.335938 20.714844 34.878906 20.714844 34.621094 20.632812 C 34.367188 20.554688 34.40625 20.429688 34.699219 20.355469 C 34.988281 20.277344 35.421875 20.277344 35.675781 20.355469 C 35.9375 20.429688 35.917969 20.554688 35.628906 20.632812"/><path transform="matrix(.00493 0 0 -.00496 26.855 32.366)" fill="none" d="M 1780.833426 2365.987373 C 1721.367562 2349.445967 1628.600814 2349.445967 1576.270853 2365.987373 C 1524.733771 2381.741093 1532.662553 2406.947046 1592.128417 2421.91308 C 1650.801403 2437.666801 1738.810882 2437.666801 1790.347964 2421.91308 C 1843.470803 2406.947046 1839.506412 2381.741093 1780.833426 2365.987373 Z M 1780.833426 2365.987373" stroke="#6E8F3C" stroke-width="5.757" stroke-miterlimit="10"/><path fill="#A8DB5B" d="M 34.90625 24.476562 C 35.226562 24.613281 35.316406 24.773438 35.265625 24.960938 L 36.90625 25.015625 L 39.125 24.0625 L 39.046875 22.5625 L 35.445312 22.40625 L 33.953125 23.589844 L 33.957031 24.289062 C 34.335938 24.296875 34.632812 24.359375 34.90625 24.476562"/><path transform="matrix(.00493 0 0 -.00496 26.855 32.366)" fill="none" d="M 1634.150961 1590.904332 C 1699.166972 1563.335322 1717.403171 1531.040195 1707.095754 1493.231266 L 2040.104593 1482.203662 L 2490.459404 1674.39905 L 2474.60184 1976.870481 L 1743.568151 2008.377921 L 1440.688683 1769.709058 L 1441.481561 1628.713261 C 1518.390745 1627.137889 1578.649488 1614.534913 1634.150961 1590.904332 Z M 1634.150961 1590.904332" stroke="#6E8F3C" stroke-width="5.757" stroke-miterlimit="10"/><path fill="#A8DB5B" d="M 32.34375 25.453125 C 31.972656 25.269531 31.914062 25.015625 32.121094 24.792969 L 31.839844 24.746094 L 31.019531 25.597656 L 32.324219 26.28125 L 32.796875 25.601562 C 32.625 25.566406 32.472656 25.515625 32.34375 25.453125"/><path transform="matrix(.00493 0 0 -.00496 26.855 32.366)" fill="none" d="M 1114.022869 1393.982828 C 1038.699442 1431.004071 1026.806269 1482.203662 1068.828813 1527.101765 L 1011.741583 1536.553997 L 845.237164 1364.838445 L 1110.058479 1226.993392 L 1205.996739 1364.050759 C 1171.110099 1371.139933 1140.18785 1381.379852 1114.022869 1393.982828 Z M 1114.022869 1393.982828" stroke="#6E8F3C" stroke-width="5.757" stroke-miterlimit="10"/><path fill="#A8DB5B" d="M 34.539062 25.328125 C 33.976562 25.546875 33.128906 25.546875 32.679688 25.328125 C 32.242188 25.117188 32.359375 24.78125 32.914062 24.585938 C 33.457031 24.394531 34.238281 24.394531 34.679688 24.585938 C 35.136719 24.78125 35.085938 25.117188 34.539062 25.328125"/><path transform="matrix(.00493 0 0 -.00496 26.855 32.366)" fill="none" d="M 1559.620411 1419.18878 C 1445.445952 1375.078364 1273.391385 1375.078364 1182.210394 1419.18878 C 1093.408037 1461.723825 1117.194382 1529.464823 1229.783085 1568.849124 C 1339.993153 1607.445739 1498.568791 1607.445739 1588.164026 1568.849124 C 1680.930774 1529.464823 1670.623358 1461.723825 1559.620411 1419.18878 Z M 1559.620411 1419.18878" stroke="#6E8F3C" stroke-width="5.757" stroke-miterlimit="10"/><path fill="#A8DB5B" d="M 42.65625 23.214844 L 44.789062 23.007812 L 45.21875 22.546875 L 43.824219 22.554688 L 42.414062 23.09375 C 42.511719 23.128906 42.59375 23.171875 42.65625 23.214844"/><path transform="matrix(.00493 0 0 -.00496 26.855 32.366)" fill="none" d="M 3207.221286 1845.326916 L 3640.132777 1887.074275 L 3727.349378 1980.021225 L 3444.291865 1978.445853 L 3158.062839 1869.745182 C 3177.884793 1862.656008 3194.535235 1853.991462 3207.221286 1845.326916 Z M 3207.221286 1845.326916" stroke="#6E8F3C" stroke-width="5.757" stroke-miterlimit="10"/><path fill="#A8DB5B" d="M 42.085938 22.996094 L 43.257812 22.558594 L 41.191406 22.566406 L 41.253906 22.917969 C 41.53125 22.914062 41.824219 22.9375 42.085938 22.996094"/><path transform="matrix(.00493 0 0 -.00496 26.855 32.366)" fill="none" d="M 3091.461071 1889.437333 L 3329.324527 1977.658167 L 2909.891966 1976.082795 L 2922.578017 1905.191053 C 2978.872368 1905.978739 3038.338232 1901.252623 3091.461071 1889.437333 Z M 3091.461071 1889.437333" stroke="#6E8F3C" stroke-width="5.757" stroke-miterlimit="10"/><path fill="#A8DB5B" d="M 42.300781 23.652344 C 41.953125 23.804688 41.292969 23.804688 40.84375 23.652344 C 40.40625 23.503906 40.347656 23.269531 40.703125 23.128906 C 41.046875 22.992188 41.667969 22.992188 42.101562 23.128906 C 42.546875 23.269531 42.644531 23.503906 42.300781 23.652344"/><path transform="matrix(.00493 0 0 -.00496 26.855 32.366)" fill="none" d="M 3135.069371 1757.106082 C 3064.503212 1726.386327 2930.506799 1726.386327 2839.325807 1757.106082 C 2750.52345 1787.038151 2738.630277 1834.299312 2810.782192 1862.656008 C 2880.555473 1890.225019 3006.623105 1890.225019 3094.632584 1862.656008 C 3185.020697 1834.299312 3204.842652 1787.038151 3135.069371 1757.106082 Z M 3135.069371 1757.106082" stroke="#6E8F3C" stroke-width="5.757" stroke-miterlimit="10"/><path fill="#A8DB5B" d="M 45.429688 20.652344 L 44.4375 20.722656 C 44.453125 20.761719 44.433594 20.796875 44.375 20.832031 L 45.320312 21.058594 L 46.476562 20.898438 L 45.429688 20.652344"/><path transform="matrix(.00493 0 0 -.00496 26.855 32.366)" fill="none" d="M 3770.1648 2362.048943 L 3568.77374 2347.870595 C 3571.945253 2339.993735 3567.980862 2332.90456 3556.087689 2325.815386 L 3747.964211 2280.129597 L 3982.656154 2312.424724 Z M 3770.1648 2362.048943" stroke="#6E8F3C" stroke-width="5.757" stroke-miterlimit="10"/><path fill="#A8DB5B" d="M 44.121094 20.5625 C 44.203125 20.585938 44.273438 20.605469 44.324219 20.632812 L 45.105469 20.578125 L 44.371094 20.40625 L 42.886719 20.398438 L 42.882812 20.46875 L 43.1875 20.542969 C 43.429688 20.488281 43.820312 20.492188 44.121094 20.5625"/><path transform="matrix(.00493 0 0 -.00496 26.855 32.366)" fill="none" d="M 3504.550607 2380.165721 C 3521.201049 2375.439605 3535.472856 2371.501175 3545.780273 2365.987373 L 3704.35591 2377.014977 L 3555.294811 2411.673162 L 3254.001099 2413.248534 L 3253.208221 2399.070186 L 3315.05272 2384.104152 C 3364.211168 2395.131756 3443.498986 2394.34407 3504.550607 2380.165721 Z M 3504.550607 2380.165721" stroke="#6E8F3C" stroke-width="5.757" stroke-miterlimit="10"/><path fill="#A8DB5B" d="M 44.136719 20.8125 C 43.976562 20.871094 43.652344 20.871094 43.417969 20.8125 C 43.183594 20.753906 43.128906 20.664062 43.292969 20.605469 C 43.453125 20.550781 43.769531 20.550781 44 20.605469 C 44.234375 20.664062 44.296875 20.753906 44.136719 20.8125"/><path transform="matrix(.00493 0 0 -.00496 26.855 32.366)" fill="none" d="M 3507.72212 2329.753816 C 3475.214114 2317.938526 3409.405224 2317.938526 3361.832533 2329.753816 C 3314.259842 2341.569107 3303.159547 2359.685885 3336.460431 2371.501175 C 3368.968437 2382.52878 3433.19157 2382.52878 3479.971383 2371.501175 C 3527.544074 2359.685885 3540.230125 2341.569107 3507.72212 2329.753816 Z M 3507.72212 2329.753816" stroke="#6E8F3C" stroke-width="5.757" stroke-miterlimit="10"/><path fill="#E2DACD" d="M 39.332031 21.800781 L 40.601562 21.847656 L 40.589844 22.445312 L 39.273438 22.449219 L 39.332031 21.800781"/><path transform="matrix(.00493 0 0 -.00496 26.855 32.366)" fill="none" d="M 2532.481948 2130.469254 L 2790.167359 2121.017022 L 2787.788725 2000.501061 L 2520.588775 1999.713375 Z M 2532.481948 2130.469254" stroke="#A7A097" stroke-width="5.757" stroke-miterlimit="10"/><path fill="#E2DACD" d="M 39.328125 20.800781 L 40.429688 20.90625 L 40.308594 20.292969 L 39.191406 20.222656 L 39.328125 20.800781"/><path transform="matrix(.00493 0 0 -.00496 26.855 32.366)" fill="none" d="M 2531.68907 2332.116874 L 2755.280719 2310.849352 L 2730.701495 2434.516057 L 2503.938333 2448.694405 Z M 2531.68907 2332.116874" stroke="#A7A097" stroke-width="5.757" stroke-miterlimit="10"/><path fill="#E2DACD" d="M 38.921875 20.203125 L 37.605469 20.234375 L 37.371094 20.777344 L 38.957031 20.78125 L 38.921875 20.203125"/><path transform="matrix(.00493 0 0 -.00496 26.855 32.366)" fill="none" d="M 2449.229738 2452.632835 L 2182.029789 2446.331347 L 2134.457098 2336.842991 L 2456.365642 2336.055304 Z M 2449.229738 2452.632835" stroke="#A7A097" stroke-width="5.757" stroke-miterlimit="10"/><g clip-path="url(#a)"><path fill="#E2DACD" d="M 26.855469 21.398438 L 26.855469 23.414062 L 28.007812 24.019531 L 28.230469 21.550781 L 26.855469 21.398438"/></g><g clip-path="url(#b)"><path transform="matrix(.00493 0 0 -.00496 26.855 32.366)" fill="none" d="M 0.029015 2211.600914 L 0.029015 1805.154929 L 233.928081 1683.063596 L 279.122137 2180.881159 Z M 0.029015 2211.600914" stroke="#A7A097" stroke-width="5.757" stroke-miterlimit="10"/></g><g clip-path="url(#c)"><path fill="#E2DACD" d="M 26.855469 21.207031 L 26.855469 21.238281 L 28.648438 21.378906 L 29.148438 20.882812 L 30.792969 20.292969 L 26.855469 21.207031"/></g><g clip-path="url(#d)"><path transform="matrix(.00493 0 0 -.00496 26.855 32.366)" fill="none" d="M 0.029015 2250.197529 L 0.029015 2243.89604 L 363.960103 2215.539344 L 465.448512 2315.575468 L 799.250229 2434.516057 Z M 0.029015 2250.197529" stroke="#A7A097" stroke-width="5.757" stroke-miterlimit="10"/></g><g clip-path="url(#e)"><path fill="#E2DACD" d="M 37.339844 18.773438 L 34.179688 19.507812 L 36.335938 20.042969 L 38.753906 19.101562 L 37.339844 18.773438"/></g><g clip-path="url(#f)"><path transform="matrix(.00493 0 0 -.00496 26.855 32.366)" fill="none" d="M 2128.114072 2740.925917 L 1486.675618 2592.840946 L 1924.344378 2484.927962 L 2415.135976 2674.760292 Z M 2128.114072 2740.925917" stroke="#A7A097" stroke-width="5.757" stroke-miterlimit="10"/></g><path fill="#E2DACD" d="M 38.9375 19.144531 L 36.589844 20.082031 L 37.25 20.152344 L 39.484375 19.269531 L 38.9375 19.144531"/><g clip-path="url(#g)"><path transform="matrix(.00493 0 0 -.00496 26.855 32.366)" fill="none" d="M 2452.401251 2666.095746 L 1975.88146 2477.051102 L 2109.877874 2462.872753 L 2563.404197 2640.889793 Z M 2452.401251 2666.095746" stroke="#A7A097" stroke-width="5.757" stroke-miterlimit="10"/></g><path fill="#E2DACD" d="M 39.804688 19.34375 L 37.933594 20.085938 L 39.234375 20.054688 L 40.40625 20.160156 L 41.269531 19.6875 L 39.804688 19.34375"/><g clip-path="url(#h)"><path transform="matrix(.00493 0 0 -.00496 26.855 32.366)" fill="none" d="M 2628.420209 2625.923759 L 2248.631557 2476.263416 L 2512.659993 2482.564904 L 2750.52345 2461.297381 L 2925.749529 2556.607389 Z M 2628.420209 2625.923759" stroke="#A7A097" stroke-width="5.757" stroke-miterlimit="10"/></g><path transform="matrix(.00493 0 0 -.00496 26.855 32.366)" fill="#E2DACD" d="M 3024.066425 2533.764495 L 2871.040934 2445.543661 L 3404.647955 2446.331347 Z M 3024.066425 2533.764495" stroke="#A7A097" stroke-width="5.757" stroke-miterlimit="10"/><g clip-path="url(#i)"><path fill="#E2DACD" d="M 46.792969 20.972656 L 45.636719 21.136719 L 46.496094 21.34375 L 47.222656 21.070312 L 46.792969 20.972656"/><path transform="matrix(.00493 0 0 -.00496 26.855 32.366)" fill="none" d="M 4046.879288 2297.45869 L 3812.187344 2264.375877 L 3986.620545 2222.628518 L 4134.095888 2277.766539 Z M 4046.879288 2297.45869" stroke="#A7A097" stroke-width="5.757" stroke-miterlimit="10"/></g><path fill="#E2DACD" d="M 36.796875 20.832031 L 35.777344 20.699219 C 35.441406 20.785156 34.96875 20.796875 34.617188 20.738281 L 34.074219 20.917969 L 36.191406 21.335938 L 36.796875 20.832031"/><path transform="matrix(.00493 0 0 -.00496 26.855 32.366)" fill="none" d="M 2017.904004 2325.815386 L 1810.962797 2352.596711 C 1742.775273 2335.267618 1646.837012 2332.90456 1575.477975 2344.719851 L 1465.267907 2308.486294 L 1895.007885 2224.20389 Z M 2017.904004 2325.815386" stroke="#A7A097" stroke-width="5.757" stroke-miterlimit="10"/><g clip-path="url(#j)"><path fill="#E2DACD" d="M 39.136719 24.304688 L 36.988281 25.269531 L 35.257812 25.183594 C 35.160156 25.28125 35.011719 25.371094 34.808594 25.453125 C 34.449219 25.59375 33.996094 25.667969 33.554688 25.671875 L 32.953125 26.609375 L 37.324219 28.902344 L 40.582031 27.195312 L 39.136719 24.304688"/></g><g clip-path="url(#k)"><path transform="matrix(.00493 0 0 -.00496 26.855 32.366)" fill="none" d="M 2492.838039 1625.562517 L 2056.755035 1431.004071 L 1705.509998 1448.333163 C 1685.688043 1428.641013 1655.558672 1410.524234 1614.329006 1393.982828 C 1541.384213 1365.626131 1449.410343 1350.660097 1359.815108 1349.872411 L 1237.711867 1160.827767 L 2124.942559 698.456075 L 2786.202968 1042.674864 Z M 2492.838039 1625.562517" stroke="#A7A097" stroke-width="5.757" stroke-miterlimit="10"/></g><g clip-path="url(#l)"><path fill="#E2DACD" d="M 47.804688 23.039062 L 45.925781 22.679688 L 45.367188 23.179688 L 42.824219 23.417969 C 42.855469 23.53125 42.773438 23.648438 42.566406 23.738281 C 42.375 23.824219 41.785156 23.9375 41.496094 23.953125 L 43.234375 25.691406 L 47.804688 23.40625 L 47.804688 23.039062"/></g><g clip-path="url(#m)"><path transform="matrix(.00493 0 0 -.00496 26.855 32.366)" fill="none" d="M 4252.234738 1880.77261 L 3870.86033 1953.239717 L 3757.478749 1852.415916 L 3241.315048 1804.367074 C 3247.658074 1781.524182 3231.007632 1757.893603 3188.985088 1739.776827 C 3150.134057 1722.447736 3030.40945 1699.604843 2971.736464 1696.4541 L 3324.567258 1345.933855 L 4252.234738 1806.730132 Z M 4252.234738 1880.77261" stroke="#A7A097" stroke-width="5.757" stroke-miterlimit="10"/></g><path fill="#E2DACD" d="M 40.460938 23.050781 C 40.523438 23.027344 40.589844 23.007812 40.664062 22.988281 L 40.636719 22.558594 L 39.394531 22.5625 L 39.519531 23.976562 L 40.316406 23.574219 C 40.085938 23.449219 40.074219 23.203125 40.460938 23.050781"/><path transform="matrix(.00493 0 0 -.00496 26.855 32.366)" fill="none" d="M 2761.623745 1878.409729 C 2774.309796 1883.135845 2787.788725 1887.074275 2802.85341 1891.012705 L 2797.303263 1977.658167 L 2545.167999 1976.870481 L 2570.540101 1691.728142 L 2732.287252 1772.859802 C 2685.507438 1798.065755 2683.128804 1847.689974 2761.623745 1878.409729 Z M 2761.623745 1878.409729" stroke="#A7A097" stroke-width="5.757" stroke-miterlimit="10"/><path fill="#E2DACD" d="M 41.328125 24.027344 C 41.195312 24.007812 40.640625 23.871094 40.523438 23.835938 L 39.664062 24.179688 L 41.203125 26.871094 L 43.03125 25.871094 L 41.328125 24.027344"/><path transform="matrix(.00493 0 0 -.00496 26.855 32.366)" fill="none" d="M 2937.642702 1681.488224 C 2910.684844 1685.426654 2798.096141 1712.995665 2774.309796 1720.084839 L 2599.876594 1650.76847 L 2912.2706 1108.052804 L 3283.337592 1309.700424 Z M 2937.642702 1681.488224" stroke="#A7A097" stroke-width="5.757" stroke-miterlimit="10"/><path fill="#E2DACD" d="M 43.019531 20.613281 L 42.558594 20.5 L 42.570312 20.394531 L 40.816406 20.378906 L 40.898438 20.867188 L 43.003906 20.722656 C 42.972656 20.683594 42.976562 20.648438 43.019531 20.613281"/><path transform="matrix(.00493 0 0 -.00496 26.855 32.366)" fill="none" d="M 3280.958958 2369.925803 L 3187.399332 2392.768698 L 3189.777966 2414.03622 L 2833.77566 2417.186964 L 2850.426102 2318.726212 L 3277.787445 2347.870595 C 3271.44442 2355.747455 3272.237298 2362.836629 3280.958958 2369.925803 Z M 3280.958958 2369.925803" stroke="#A7A097" stroke-width="5.757" stroke-miterlimit="10"/><path fill="#E2DACD" d="M 31.417969 20.605469 C 31.78125 20.402344 31.855469 20.214844 31.828125 20.074219 L 29.617188 20.929688 L 29.042969 21.484375 L 30.652344 21.648438 C 30.554688 21.296875 30.902344 20.898438 31.417969 20.605469"/><path transform="matrix(.00493 0 0 -.00496 26.855 32.366)" fill="none" d="M 926.110739 2371.501175 C 999.84841 2412.460848 1014.913096 2450.269777 1009.362949 2478.626474 L 560.593894 2306.123236 L 444.0408 2194.271821 L 770.706614 2161.189009 C 750.884659 2232.08075 821.450818 2312.424724 926.110739 2371.501175 Z M 926.110739 2371.501175" stroke="#A7A097" stroke-width="5.757" stroke-miterlimit="10"/><path fill="#E2DACD" d="M 32.453125 20.710938 C 31.90625 21.042969 31.640625 21.546875 32.203125 21.808594 L 32.359375 21.824219 L 32.488281 21.351562 L 33.734375 20.917969 L 32.824219 20.402344 C 32.75 20.5 32.628906 20.601562 32.453125 20.710938"/><path transform="matrix(.00493 0 0 -.00496 26.855 32.366)" fill="none" d="M 1136.223459 2350.233653 C 1025.220512 2283.280341 971.304796 2181.668845 1085.479255 2128.893882 L 1117.194382 2125.743138 L 1143.359362 2221.053146 L 1396.287504 2308.486294 L 1211.546887 2412.460848 C 1196.482201 2392.768698 1171.902977 2372.288861 1136.223459 2350.233653 Z M 1136.223459 2350.233653" stroke="#A7A097" stroke-width="5.757" stroke-miterlimit="10"/><path fill="#E2DACD" d="M 32.046875 22.339844 C 31.660156 22.289062 31.390625 22.214844 31.207031 22.140625 C 31.183594 22.128906 31.15625 22.117188 31.132812 22.109375 C 30.933594 22.019531 30.800781 21.914062 30.722656 21.796875 L 28.949219 21.628906 L 29.015625 24.546875 L 29.113281 24.597656 L 31.574219 24.554688 L 31.988281 22.621094 L 32.046875 22.339844"/><path transform="matrix(.00493 0 0 -.00496 26.855 32.366)" fill="none" d="M 1053.764127 2021.768584 C 975.269187 2032.008502 920.560592 2046.974536 883.295317 2061.940571 C 878.538048 2064.303629 872.9879 2066.666687 868.230631 2068.242059 C 827.793844 2086.358837 800.835985 2107.62636 784.978421 2131.25694 L 425.011724 2165.127439 L 438.490653 1576.725984 L 458.312608 1566.486066 L 957.825866 1575.150612 L 1041.870954 1965.05519 Z M 1053.764127 2021.768584" stroke="#A7A097" stroke-width="5.757" stroke-miterlimit="10"/><path fill="#E2DACD" d="M 32.640625 21.859375 L 33.292969 21.957031 C 33.425781 21.953125 33.566406 21.949219 33.71875 21.9375 C 34.3125 21.894531 34.972656 21.820312 35.664062 21.738281 L 36.058594 21.433594 L 33.898438 20.996094 L 32.820312 21.378906 L 32.640625 21.859375"/><path transform="matrix(.00493 0 0 -.00496 26.855 32.366)" fill="none" d="M 1174.281612 2118.653964 L 1306.692269 2098.961813 C 1333.650128 2099.749499 1362.193742 2100.537185 1393.115992 2102.900243 C 1513.633476 2111.56479 1647.62989 2126.530824 1787.969329 2143.07223 L 1868.050026 2204.51174 L 1429.588388 2292.732574 L 1210.754008 2215.539344 Z M 1174.281612 2118.653964" stroke="#A7A097" stroke-width="5.757" stroke-miterlimit="10"/><path fill="#E2DACD" d="M 32.902344 20.273438 L 33.964844 20.84375 L 34.414062 20.691406 C 34.414062 20.691406 34.410156 20.691406 34.410156 20.691406 C 34.058594 20.578125 34.113281 20.40625 34.523438 20.300781 C 34.855469 20.214844 35.328125 20.203125 35.679688 20.257812 L 36.109375 20.113281 L 33.914062 19.566406 L 32.804688 19.824219 C 32.90625 19.9375 32.984375 20.089844 32.902344 20.273438"/><path transform="matrix(.00493 0 0 -.00496 26.855 32.366)" fill="none" d="M 1227.40445 2438.454487 L 1443.067318 2323.452328 L 1534.248309 2354.172083 C 1534.248309 2354.172083 1533.455431 2354.172083 1533.455431 2354.172083 C 1462.096394 2377.014977 1473.196689 2411.673162 1556.448898 2432.940685 C 1623.843544 2450.269777 1719.781805 2452.632835 1791.140842 2441.605231 L 1878.357443 2470.749613 L 1432.759901 2581.025656 L 1207.582496 2529.038379 C 1228.197329 2506.195484 1244.054892 2475.47573 1227.40445 2438.454487 Z M 1227.40445 2438.454487" stroke="#A7A097" stroke-width="5.757" stroke-miterlimit="10"/><path fill="#E2DACD" d="M 36.402344 21.648438 C 36.625 21.621094 36.851562 21.59375 37.074219 21.566406 L 36.5625 21.507812 L 36.386719 21.652344 C 36.390625 21.648438 36.398438 21.648438 36.402344 21.648438"/><path transform="matrix(.00493 0 0 -.00496 26.855 32.366)" fill="none" d="M 1937.823307 2161.189009 C 1983.017364 2166.702811 2029.004299 2172.216613 2074.198355 2177.730415 L 1970.331313 2189.545705 L 1934.651794 2160.401323 C 1935.444672 2161.189009 1937.030429 2161.189009 1937.823307 2161.189009 Z M 1937.823307 2161.189009" stroke="#A7A097" stroke-width="5.757" stroke-miterlimit="10"/><path fill="#E2DACD" d="M 38.96875 21.777344 C 38.28125 21.851562 37.566406 21.941406 36.847656 22.03125 C 36.472656 22.082031 36.097656 22.128906 35.730469 22.171875 L 35.59375 22.28125 L 39.039062 22.449219 L 39.003906 21.78125 L 38.96875 21.777344"/><path transform="matrix(.00493 0 0 -.00496 26.855 32.366)" fill="none" d="M 2458.744277 2135.19537 C 2319.197715 2120.229336 2174.101007 2102.112557 2028.21142 2083.995779 C 1952.095114 2073.755861 1875.978808 2064.303629 1801.448259 2055.639082 L 1773.697522 2033.583874 L 2473.016084 1999.713375 L 2465.88018 2134.407684 Z M 2458.744277 2135.19537" stroke="#A7A097" stroke-width="5.757" stroke-miterlimit="10"/><path fill="#E2DACD" d="M 40.519531 21.261719 L 40.472656 20.992188 L 39.253906 20.882812 L 39.292969 21.335938 C 39.703125 21.300781 40.113281 21.277344 40.519531 21.261719"/><path transform="matrix(.00493 0 0 -.00496 26.855 32.366)" fill="none" d="M 2773.516917 2239.169924 L 2764.002379 2293.52026 L 2516.624384 2315.575468 L 2524.553166 2224.20389 C 2607.805376 2231.293064 2691.057586 2236.01918 2773.516917 2239.169924 Z M 2773.516917 2239.169924" stroke="#A7A097" stroke-width="5.757" stroke-miterlimit="10"/><path fill="#E2DACD" d="M 39.6875 21.710938 L 40.601562 21.746094 L 40.585938 21.652344 C 40.292969 21.664062 39.992188 21.683594 39.6875 21.710938"/><path transform="matrix(.00493 0 0 -.00496 26.855 32.366)" fill="none" d="M 2604.633863 2148.586032 L 2790.167359 2141.496858 L 2786.995847 2160.401323 C 2727.529982 2158.038265 2666.478362 2154.099835 2604.633863 2148.586032 Z M 2604.633863 2148.586032" stroke="#A7A097" stroke-width="5.757" stroke-miterlimit="10"/><path fill="#E2DACD" d="M 43.589844 21.433594 C 44.210938 21.539062 44.863281 21.632812 45.523438 21.710938 L 46.304688 21.414062 L 45.335938 21.179688 L 43.570312 21.429688 C 43.578125 21.429688 43.582031 21.433594 43.589844 21.433594"/><path transform="matrix(.00493 0 0 -.00496 26.855 32.366)" fill="none" d="M 3396.719173 2204.51174 C 3522.786805 2183.244217 3655.197463 2164.339753 3789.193876 2148.586032 L 3947.769514 2208.45017 L 3751.135723 2255.711331 L 3392.754782 2205.299426 C 3394.340539 2205.299426 3395.133417 2204.51174 3396.719173 2204.51174 Z M 3396.719173 2204.51174" stroke="#A7A097" stroke-width="5.757" stroke-miterlimit="10"/><path fill="#E2DACD" d="M 43.121094 21.769531 C 42.765625 21.707031 42.398438 21.667969 42.023438 21.648438 L 41.058594 21.785156 L 41.171875 22.441406 L 43.605469 22.425781 L 44.703125 22.015625 C 44.160156 21.941406 43.628906 21.859375 43.121094 21.769531"/><path transform="matrix(.00493 0 0 -.00496 26.855 32.366)" fill="none" d="M 3301.573791 2136.770742 C 3229.421876 2149.373718 3154.891326 2157.250579 3078.77502 2161.189009 L 2882.934107 2133.619998 L 2905.927575 2001.288747 L 3399.890686 2004.439491 L 3622.689457 2087.146523 C 3512.479389 2102.112557 3404.647955 2118.653964 3301.573791 2136.770742 Z M 3301.573791 2136.770742" stroke="#A7A097" stroke-width="5.757" stroke-miterlimit="10"/><path fill="#E2DACD" d="M 43.144531 21.367188 L 45.023438 21.101562 L 44.171875 20.894531 C 43.921875 20.9375 43.5625 20.925781 43.289062 20.855469 C 43.234375 20.84375 43.1875 20.828125 43.148438 20.8125 L 40.917969 20.96875 L 40.964844 21.25 C 41.699219 21.242188 42.425781 21.273438 43.144531 21.367188"/><path transform="matrix(.00493 0 0 -.00496 26.855 32.366)" fill="none" d="M 3306.33106 2217.902402 L 3687.705468 2271.465051 L 3514.858023 2313.21241 C 3464.113819 2304.547864 3391.169026 2306.910922 3335.667553 2321.08927 C 3324.567258 2323.452328 3315.05272 2326.603072 3307.123938 2329.753816 L 2854.390493 2298.246376 L 2863.905031 2241.532982 C 3012.96613 2243.108354 3160.441473 2236.806866 3306.33106 2217.902402 Z M 3306.33106 2217.902402" stroke="#A7A097" stroke-width="5.757" stroke-miterlimit="10"/><path fill="#E2DACD" d="M 41.03125 21.636719 L 41.035156 21.664062 L 41.246094 21.632812 C 41.175781 21.632812 41.101562 21.636719 41.03125 21.636719"/><path transform="matrix(.00493 0 0 -.00496 26.855 32.366)" fill="none" d="M 2877.38396 2163.552067 L 2878.176838 2158.038265 L 2920.99226 2164.339753 C 2906.720453 2164.339753 2891.655767 2163.552067 2877.38396 2163.552067 Z M 2877.38396 2163.552067" stroke="#A7A097" stroke-width="5.757" stroke-miterlimit="10"/><g clip-path="url(#n)"><path fill="#E2DACD" d="M 47.804688 21.78125 L 46.613281 21.492188 L 45.921875 21.753906 C 46.5625 21.824219 47.195312 21.875 47.804688 21.910156 L 47.804688 21.78125"/></g><g clip-path="url(#o)"><path transform="matrix(.00493 0 0 -.00496 26.855 32.366)" fill="none" d="M 4252.234738 2134.407484 L 4010.406891 2192.696244 L 3870.067452 2139.921286 C 4000.099474 2125.742939 4128.545741 2115.503022 4252.234738 2108.413848 Z M 4252.234738 2134.407484" stroke="#A7A097" stroke-width="5.757" stroke-miterlimit="10"/></g><path fill="#E2DACD" d="M 45.097656 22.070312 L 44.167969 22.425781 L 45.335938 22.417969 L 45.605469 22.128906 C 45.4375 22.109375 45.265625 22.089844 45.097656 22.070312"/><path transform="matrix(.00493 0 0 -.00496 26.855 32.366)" fill="none" d="M 3702.770154 2076.118919 L 3514.065145 2004.439491 L 3751.135723 2006.014863 L 3805.844318 2064.303629 C 3771.750556 2068.242059 3736.863916 2072.180489 3702.770154 2076.118919 Z M 3702.770154 2076.118919" stroke="#A7A097" stroke-width="5.757" stroke-miterlimit="10"/><g clip-path="url(#p)"><path fill="#E2DACD" d="M 47.804688 21.207031 L 47.527344 21.140625 L 46.804688 21.417969 L 47.804688 21.660156 L 47.804688 21.207031"/></g><g clip-path="url(#q)"><path transform="matrix(.00493 0 0 -.00496 26.855 32.366)" fill="none" d="M 4252.234738 2250.197318 L 4195.940387 2263.587979 L 4049.257922 2207.662277 L 4252.234738 2158.825748 Z M 4252.234738 2250.197318" stroke="#A7A097" stroke-width="5.757" stroke-miterlimit="10"/></g><g clip-path="url(#r)"><path fill="#E2DACD" d="M 47.804688 22.367188 L 47.453125 22.304688 C 47.035156 22.273438 46.609375 22.238281 46.183594 22.195312 L 45.867188 22.460938 L 47.804688 22.816406 L 47.804688 22.367188"/></g><g clip-path="url(#s)"><path transform="matrix(.00493 0 0 -.00496 26.855 32.366)" fill="none" d="M 4252.234738 2016.254593 L 4180.875701 2028.857568 C 4096.037735 2035.159055 4009.614013 2042.248229 3923.19029 2050.912774 L 3858.967157 1997.35013 L 4252.234738 1925.670709 Z M 4252.234738 2016.254593" stroke="#A7A097" stroke-width="5.757" stroke-miterlimit="10"/></g><path fill="#E2DACD" d="M 37.535156 21.511719 C 38.019531 21.457031 38.503906 21.402344 38.988281 21.359375 L 38.960938 20.867188 L 37.308594 20.867188 L 36.664062 21.414062 L 37.535156 21.511719"/><path transform="matrix(.00493 0 0 -.00496 26.855 32.366)" fill="none" d="M 2167.757982 2188.758019 C 2266.074877 2199.785624 2364.391772 2210.813228 2462.708668 2219.477774 L 2457.15852 2318.726212 L 2121.771047 2318.726212 L 1990.946146 2208.45017 Z M 2167.757982 2188.758019" stroke="#A7A097" stroke-width="5.757" stroke-miterlimit="10"/><path fill="#E2DACD" d="M 33.300781 23.5625 L 34.910156 22.332031 L 34.664062 22.292969 C 34.398438 22.320312 34.136719 22.34375 33.882812 22.363281 C 33.28125 22.40625 32.785156 22.40625 32.386719 22.375 L 31.878906 24.53125 L 32.328125 24.632812 C 32.425781 24.578125 32.539062 24.523438 32.675781 24.476562 C 32.859375 24.410156 33.058594 24.363281 33.265625 24.332031 L 33.300781 23.5625"/><path transform="matrix(.00493 0 0 -.00496 26.855 32.366)" fill="none" d="M 1308.278026 1775.22286 L 1634.943839 2023.343956 L 1584.992513 2031.220816 C 1531.076796 2025.707014 1477.953958 2020.980898 1426.416876 2017.042468 C 1304.313635 2008.377921 1203.618105 2008.377921 1122.74453 2014.679409 L 1019.670365 1579.876728 L 1110.851357 1559.396892 C 1130.673311 1570.424496 1153.666779 1581.4521 1181.417515 1590.904332 C 1218.68279 1604.294995 1259.119578 1613.747227 1301.142122 1620.048715 Z M 1308.278026 1775.22286" stroke="#A7A097" stroke-width="5.757" stroke-miterlimit="10"/><path fill="#61CCF5" d="M 38.960938 21.640625 C 38.984375 21.589844 39.0625 21.511719 39.027344 21.453125 C 38.191406 21.53125 37.335938 21.636719 36.507812 21.738281 C 36.417969 21.75 36.324219 21.761719 36.234375 21.773438 C 36.171875 21.863281 36.054688 21.953125 35.921875 22.039062 C 36.191406 22.007812 36.460938 21.972656 36.738281 21.9375 C 37.484375 21.84375 38.230469 21.75 38.949219 21.675781 C 38.953125 21.664062 38.957031 21.652344 38.960938 21.640625"/><path transform="matrix(.00493 0 0 -.00496 26.855 32.366)" fill="none" d="M 2457.15852 2162.764381 C 2461.915789 2173.004299 2477.773353 2188.758019 2470.637449 2200.57331 C 2300.961517 2184.819589 2127.321194 2163.552067 1959.231018 2143.07223 C 1940.99482 2140.709172 1921.965743 2138.346114 1903.729545 2135.983056 C 1891.043494 2117.866278 1867.257148 2099.749499 1840.29929 2082.420407 C 1895.007885 2088.721895 1949.71648 2095.811069 2006.010831 2102.900243 C 2157.450565 2121.804708 2308.890299 2140.709172 2454.779886 2155.675207 C 2455.572764 2158.038265 2456.365642 2160.401323 2457.15852 2162.764381 Z M 2457.15852 2162.764381" stroke="#4895B6" stroke-width="5.757" stroke-miterlimit="10"/><path fill="#61CCF5" d="M 40.566406 21.351562 C 40.191406 21.367188 39.816406 21.390625 39.433594 21.421875 C 39.484375 21.488281 39.4375 21.566406 39.40625 21.632812 C 39.824219 21.597656 40.234375 21.566406 40.632812 21.550781 C 40.621094 21.484375 40.578125 21.417969 40.566406 21.351562"/><path transform="matrix(.00493 0 0 -.00496 26.855 32.366)" fill="none" d="M 2783.031456 2221.053146 C 2706.91515 2217.902402 2630.798843 2213.176286 2553.096781 2206.874798 C 2563.404197 2193.484135 2553.889659 2177.730415 2547.546634 2164.339753 C 2632.3846 2171.428927 2715.63681 2177.730415 2796.510385 2180.881159 C 2794.13175 2194.271821 2785.41009 2207.662484 2783.031456 2221.053146 Z M 2783.031456 2221.053146" stroke="#4895B6" stroke-width="5.757" stroke-miterlimit="10"/><path fill="#61CCF5" d="M 45.90625 21.851562 C 45.09375 21.761719 44.273438 21.648438 43.480469 21.511719 C 42.667969 21.375 41.832031 21.328125 40.988281 21.34375 C 41 21.40625 41.050781 21.472656 41.0625 21.539062 C 41.816406 21.527344 42.542969 21.566406 43.238281 21.6875 C 44.019531 21.824219 44.851562 21.941406 45.695312 22.039062 C 45.777344 21.976562 45.855469 21.914062 45.90625 21.851562"/><path transform="matrix(.00493 0 0 -.00496 26.855 32.366)" fill="none" d="M 3866.895939 2120.229336 C 3701.977276 2138.346114 3535.472856 2161.189009 3374.518584 2188.758019 C 3209.599921 2216.32703 3039.923989 2225.779262 2868.6623 2222.628518 C 2871.040934 2210.025542 2881.348351 2196.634879 2883.726985 2183.244217 C 3036.752476 2185.607275 3184.227819 2177.730415 3325.360136 2153.312149 C 3483.935774 2125.743138 3652.818828 2102.112557 3824.080517 2082.420407 C 3840.730959 2095.023383 3856.588522 2107.62636 3866.895939 2120.229336 Z M 3866.895939 2120.229336" stroke="#4895B6" stroke-width="5.757" stroke-miterlimit="10"/><g clip-path="url(#t)"><path fill="#61CCF5" d="M 47.804688 22.011719 C 47.414062 21.988281 47.011719 21.957031 46.597656 21.917969 C 46.597656 21.921875 46.597656 21.925781 46.59375 21.929688 C 46.550781 21.992188 46.488281 22.054688 46.414062 22.113281 C 46.882812 22.160156 47.347656 22.199219 47.804688 22.226562 L 47.804688 22.011719"/></g><g clip-path="url(#u)"><path transform="matrix(.00493 0 0 -.00496 26.855 32.366)" fill="none" d="M 4252.234738 2087.934014 C 4172.946919 2092.660129 4091.280466 2098.961617 4007.235378 2106.838476 C 4007.235378 2106.05079 4007.235378 2105.263104 4006.4425 2104.475418 C 3997.72084 2091.872443 3985.034789 2079.269468 3969.970103 2067.454179 C 4065.115486 2058.001948 4159.46799 2050.125088 4252.234738 2044.611287 Z M 4252.234738 2087.934014" stroke="#4895B6" stroke-width="5.757" stroke-miterlimit="10"/></g><path fill="#61CCF5" d="M 32.136719 20.132812 C 32.3125 20.15625 32.5 20.175781 32.664062 20.207031 C 32.695312 20.074219 32.648438 19.960938 32.578125 19.875 L 32.070312 19.992188 C 32.089844 20.035156 32.101562 20.078125 32.101562 20.128906 C 32.113281 20.128906 32.125 20.128906 32.136719 20.132812"/><path transform="matrix(.00493 0 0 -.00496 26.855 32.366)" fill="none" d="M 1072.000325 2466.811183 C 1107.679844 2462.085067 1145.737997 2458.146637 1179.038881 2451.845149 C 1185.381906 2478.626474 1175.867368 2501.469368 1161.595561 2518.79846 L 1058.521396 2495.16788 C 1062.485787 2486.503334 1064.864422 2477.838788 1064.864422 2467.598869 C 1067.243056 2467.598869 1069.621691 2467.598869 1072.000325 2466.811183 Z M 1072.000325 2466.811183" stroke="#4895B6" stroke-width="5.757" stroke-miterlimit="10"/><path fill="#61CCF5" d="M 35.445312 21.867188 C 34.851562 21.9375 34.28125 22 33.757812 22.039062 C 33.4375 22.0625 33.148438 22.066406 32.890625 22.054688 C 32.894531 22.132812 32.820312 22.207031 32.722656 22.28125 C 33.035156 22.292969 33.40625 22.289062 33.84375 22.257812 C 34.214844 22.226562 34.601562 22.191406 35 22.148438 C 35.15625 22.054688 35.320312 21.960938 35.445312 21.867188"/><path transform="matrix(.00493 0 0 -.00496 26.855 32.366)" fill="none" d="M 1743.568151 2117.078592 C 1623.050666 2102.900243 1507.290451 2090.297267 1401.044774 2082.420407 C 1336.028762 2077.694291 1277.355776 2076.906605 1225.025816 2079.269663 C 1225.818694 2063.515943 1210.754008 2048.549908 1190.932054 2033.583874 C 1254.362309 2031.220816 1329.685737 2032.008502 1418.488094 2038.30999 C 1493.811522 2044.611478 1572.306462 2051.700652 1653.180037 2060.365198 C 1684.895165 2079.269663 1718.196049 2098.174127 1743.568151 2117.078592 Z M 1743.568151 2117.078592" stroke="#4895B6" stroke-width="5.757" stroke-miterlimit="10"/><path fill="#61CCF5" d="M 32.402344 22.015625 C 32.398438 22.011719 32.394531 22.007812 32.394531 22.007812 C 32.230469 21.980469 32.089844 21.941406 31.976562 21.890625 C 31.285156 21.597656 31.605469 21.039062 32.199219 20.683594 C 32.410156 20.558594 32.535156 20.441406 32.605469 20.335938 C 32.558594 20.324219 32.511719 20.308594 32.457031 20.300781 C 32.335938 20.28125 32.203125 20.261719 32.074219 20.246094 C 32.027344 20.359375 31.910156 20.492188 31.664062 20.628906 C 30.953125 21.039062 30.582031 21.671875 31.40625 22.039062 C 31.425781 22.046875 31.449219 22.058594 31.46875 22.066406 C 31.652344 22.136719 31.917969 22.207031 32.296875 22.25 C 32.402344 22.171875 32.488281 22.085938 32.402344 22.015625"/><path transform="matrix(.00493 0 0 -.00496 26.855 32.366)" fill="none" d="M 1125.916042 2087.146523 C 1125.123164 2087.934209 1124.330286 2088.721895 1124.330286 2088.721895 C 1091.029402 2094.235697 1062.485787 2102.112557 1039.49232 2112.352476 C 899.15288 2171.428927 964.168892 2284.068027 1084.686376 2355.747455 C 1127.501799 2380.953407 1152.873901 2404.583988 1167.145708 2425.85151 C 1157.63117 2428.214569 1148.116632 2431.365313 1137.016337 2432.940685 C 1112.437113 2436.879115 1085.479255 2440.817545 1059.314274 2443.968289 C 1049.799736 2421.125394 1026.013391 2394.34407 976.062065 2366.775059 C 831.758234 2284.068027 756.434807 2156.462893 923.732104 2082.420407 C 927.696495 2080.845035 932.453764 2078.481977 936.418155 2076.906605 C 973.68343 2062.728257 1027.599147 2048.549908 1104.508331 2039.885362 C 1125.916042 2055.639082 1143.359362 2072.968175 1125.916042 2087.146523 Z M 1125.916042 2087.146523" stroke="#4895B6" stroke-width="5.757" stroke-miterlimit="10"/><g clip-path="url(#v)"><path transform="matrix(.00493 0 0 -.00496 26.855 32.366)" fill="none" d="M 3318.224233 1315.214226 L 2940.021337 1705.118805 C 2940.021337 1705.118805 2857.562005 1712.207979 2775.102674 1756.318396 L 2049.619132 1458.573081 L 1691.23819 1473.539116 C 1691.23819 1473.539116 1726.917709 1605.082681 1403.423408 1613.747227 C 1317.792564 1615.322599 1189.346297 1594.842762 1121.158773 1534.190939 L 983.197968 1571.999868 L 1092.615158 2022.55627 C 1092.615158 2022.55627 815.107793 2071.392803 801.628863 2141.496858 L 639.881713 2160.401323" stroke="#F14624" stroke-width="57.569" stroke-miterlimit="10"/></g><g fill="#75FCC6"><use x="15.496" y="9.949" xmlns:xlink="http://www.w3.org/1999/xlink" xlink:href="#w" xlink:type="simple" xlink:actuate="onLoad" xlink:show="embed"/></g><g fill="#75FCC6"><use x="22.301" y="9.949" xmlns:xlink="http://www.w3.org/1999/xlink" xlink:href="#x" xlink:type="simple" xlink:actuate="onLoad" xlink:show="embed"/></g><g fill="#75FCC6"><use x="27.985" y="9.949" xmlns:xlink="http://www.w3.org/1999/xlink" xlink:href="#y" xlink:type="simple" xlink:actuate="onLoad" xlink:show="embed"/></g><g fill="#75FCC6"><use x="34.581" y="9.949" xmlns:xlink="http://www.w3.org/1999/xlink" xlink:href="#z" xlink:type="simple" xlink:actuate="onLoad" xlink:show="embed"/></g><g fill="#75FCC6"><use x="41.326" y="9.949" xmlns:xlink="http://www.w3.org/1999/xlink" xlink:href="#y" xlink:type="simple" xlink:actuate="onLoad" xlink:show="embed"/></g><g fill="#75FCC6"><use x="47.922" y="9.949" xmlns:xlink="http://www.w3.org/1999/xlink" xlink:href="#A" xlink:type="simple" xlink:actuate="onLoad" xlink:show="embed"/></g><g fill="#75FCC6"><use x="53.815" y="9.949" xmlns:xlink="http://www.w3.org/1999/xlink" xlink:href="#B" xlink:type="simple" xlink:actuate="onLoad" xlink:show="embed"/></g><g fill="#75FCC6"><use x="9.099" y="19.92" xmlns:xlink="http://www.w3.org/1999/xlink" xlink:href="#C" xlink:type="simple" xlink:actuate="onLoad" xlink:show="embed"/></g><g fill="#75FCC6"><use x="17.243" y="19.92" xmlns:xlink="http://www.w3.org/1999/xlink" xlink:href="#A" xlink:type="simple" xlink:actuate="onLoad" xlink:show="embed"/></g><g fill="#75FCC6"><use x="23.135" y="19.92" xmlns:xlink="http://www.w3.org/1999/xlink" xlink:href="#D" xlink:type="simple" xlink:actuate="onLoad" xlink:show="embed"/></g><g fill="#75FCC6"><use x="29.253" y="19.92" xmlns:xlink="http://www.w3.org/1999/xlink" xlink:href="#w" xlink:type="simple" xlink:actuate="onLoad" xlink:show="embed"/></g><g fill="#75FCC6"><use x="36.058" y="19.92" xmlns:xlink="http://www.w3.org/1999/xlink" xlink:href="#E" xlink:type="simple" xlink:actuate="onLoad" xlink:show="embed"/></g><g fill="#75FCC6"><use x="42.549" y="19.92" xmlns:xlink="http://www.w3.org/1999/xlink" xlink:href="#A" xlink:type="simple" xlink:actuate="onLoad" xlink:show="embed"/></g><g fill="#75FCC6"><use x="48.442" y="19.92" xmlns:xlink="http://www.w3.org/1999/xlink" xlink:href="#F" xlink:type="simple" xlink:actuate="onLoad" xlink:show="embed"/></g><g fill="#75FCC6"><use x="54.843" y="19.92" xmlns:xlink="http://www.w3.org/1999/xlink" xlink:href="#G" xlink:type="simple" xlink:actuate="onLoad" xlink:show="embed"/></g><g fill="#75FCC6"><use x="60.938" y="19.92" xmlns:xlink="http://www.w3.org/1999/xlink" xlink:href="#A" xlink:type="simple" xlink:actuate="onLoad" xlink:show="embed"/></g></svg>